<svg xmlns="http://www.w3.org/2000/svg" viewBox="0 0 120 120" width="120" height="120">
  <rect width="120" height="120" rx="24" fill="#ffffff" stroke="#e2e8f0" stroke-width="2"/>
  <!-- GeeksforGeeks iconic curved green braces -->
  <g transform="translate(18, 22)">
    <!-- Left curly brace -->
    <path d="M 38 12 C 26 12 18 18 18 28 C 18 36 14 40 4 40 C 14 40 18 44 18 52 C 18 62 26 68 38 68" 
          fill="none" stroke="#2f8d46" stroke-width="8" stroke-linecap="round"/>
    <!-- Right curly brace -->
    <path d="M 46 12 C 58 12 66 18 66 28 C 66 36 70 40 80 40 C 70 40 66 44 66 52 C 66 62 58 68 46 68" 
          fill="none" stroke="#2f8d46" stroke-width="8" stroke-linecap="round"/>
  </g>
  <text x="60" y="104" font-family="'Inter', Arial, sans-serif" font-size="11" font-weight="800" text-anchor="middle" fill="#2f8d46">GFG LTCE</text>
</svg>
