<svg xmlns="http://www.w3.org/2000/svg" viewBox="0 0 100 100" width="100" height="100">
  <rect width="100" height="100" rx="20" fill="#ffffff" stroke="#e2e8f0" stroke-width="2"/>
  <!-- IIC Innovation Flame / Spark -->
  <path d="M50 20 C42 32 35 42 35 54 C35 63 41 70 50 70 C59 70 65 63 65 54 C65 42 58 32 50 20 Z" fill="#f97316"/>
  <path d="M50 36 C45 44 42 50 42 56 C42 61 46 64 50 64 C54 64 58 61 58 56 C58 50 55 44 50 36 Z" fill="#facc15"/>
  <circle cx="70" cy="30" r="5" fill="#3b82f6"/>
  <circle cx="30" cy="35" r="4" fill="#10b981"/>
  <text x="50" y="88" font-family="Arial, sans-serif" font-size="12" font-weight="bold" text-anchor="middle" fill="#1e3a8a">IIC</text>
</svg>
